<svg width="100" height="100" viewBox="0 0 100 100" fill="none" xmlns="http://www.w3.org/2000/svg">
<g clip-path="url(#clip0_0_3)">
<rect width="100" height="100" rx="50" fill="#FFE600"/>
<path d="M74 23.2C72.8 23.7333 71.7 24.3333 70.7 25C69.7667 25.6 68.9667 26.5 68.3 27.7C67.6333 28.8333 67.1 30.5 66.7 32.7L58.7 70.3C58.2333 72.9 57.5 75.2333 56.5 77.3C55.5 79.3667 54.1333 81.1333 52.4 82.6C50.7333 84.1333 48.6333 85.3 46.1 86.1C43.5667 86.9 40.5333 87.3 37 87.3L33.8 74.3C35 74.3 36.1667 74.2333 37.3 74.1C38.4333 73.9667 39.4667 73.7333 40.4 73.4C41.3333 73.0667 42.1333 72.6 42.8 72C43.4667 71.4667 43.9 70.7333 44.1 69.8L45.5 65C43.7 64.8667 41.9667 64.4667 40.3 63.8C38.6333 63.1333 37.1667 61.9667 35.9 60.3C34.7 58.6333 33.8333 56.3 33.3 53.3L27.2 16.9H42.8L46.1 48C46.1667 48.7333 46.3 49.2667 46.5 49.6C46.7 49.8667 46.9 50.0667 47.1 50.2C47.3667 50.2667 47.5667 50.3 47.7 50.3C47.9 50.3 48 50.3 48 50.3L51.7 31.3C52.4333 27.5 53.4333 24.4333 54.7 22.1C55.9667 19.7667 57.7 18 59.9 16.8C62.1 15.5333 64.9 14.7 68.3 14.3L74 23.2Z" fill="black"/>
</g>
<defs>
<clipPath id="clip0_0_3">
<rect width="100" height="100" rx="50" fill="white"/>
</clipPath>
</defs>
</svg>
